<svg xmlns="http://www.w3.org/2000/svg" width="420" height="300" viewBox="0 0 420 300">
  <rect width="420" height="300" fill="#e9f1ed"/>
  <rect y="210" width="420" height="90" fill="#d6dfd8"/>
  <path d="M0 210 C60 190 110 215 165 196 C220 176 270 215 330 192 C365 178 395 188 420 175 L420 300 L0 300 Z" fill="#b9ccb9"/>
  <rect x="0" y="232" width="420" height="68" fill="#c9c6bc"/>
  <path d="M0 260 H420" stroke="#aaa99f" stroke-width="4" opacity=".45"/>
  <circle cx="85" cy="74" r="36" fill="#7fa36f"/>
  <rect x="80" y="78" width="10" height="118" rx="5" fill="#6b584a"/>
  <circle cx="315" cy="67" r="44" fill="#86ad7a"/>
  <rect x="309" y="74" width="12" height="128" rx="6" fill="#6b584a"/>
  <g fill="#294c60">
    <circle cx="156" cy="164" r="13"/>
    <rect x="141" y="178" width="30" height="45" rx="13"/>
    <circle cx="220" cy="151" r="13"/>
    <rect x="205" y="165" width="30" height="55" rx="13"/>
    <circle cx="280" cy="168" r="13"/>
    <rect x="265" y="182" width="30" height="44" rx="13"/>
  </g>
  <path d="M178 215 L205 215 L202 260 L181 260 Z" fill="#2f2f31"/>
  <path d="M296 218 L326 218 L323 260 L299 260 Z" fill="#2f2f31"/>
  <path d="M116 213 L137 213 L134 247 L119 247 Z" fill="#3f8fc1"/>
  <rect x="43" y="236" width="54" height="28" rx="8" fill="#4d9a78"/>
  <path d="M58 247 h24" stroke="#e8f7ef" stroke-width="5" stroke-linecap="round"/>
</svg>
